<svg xmlns="http://www.w3.org/2000/svg" xmlns:xlink="http://www.w3.org/1999/xlink" width="2880" zoomAndPan="magnify" viewBox="0 0 2160 1349.999938" height="1800" preserveAspectRatio="xMidYMid meet" version="1.0"><defs><filter x="0%" y="0%" width="100%" height="100%" id="d389e66760"><feColorMatrix values="0 0 0 0 1 0 0 0 0 1 0 0 0 0 1 0 0 0 1 0" color-interpolation-filters="sRGB"/></filter><mask id="2708d538ed"><g filter="url(#d389e66760)"><rect x="-216" width="2592" fill="#000000" y="-134.999994" height="1619.999926" fill-opacity="0.19"/></g></mask><clipPath id="826c92c479"><path d="M 0 35 L 2160 35 L 2160 835 L 0 835 Z M 0 35 " clip-rule="nonzero"/></clipPath><clipPath id="96ae02dd49"><path d="M -42.324219 13.4375 L 2232.136719 103.601562 L 2202.132812 860.507812 L -72.328125 770.34375 Z M -42.324219 13.4375 " clip-rule="nonzero"/></clipPath><clipPath id="b8775b89b7"><path d="M -42.324219 13.4375 L 2232.136719 103.601562 L 2202.132812 860.507812 L -72.328125 770.34375 Z M -42.324219 13.4375 " clip-rule="nonzero"/></clipPath><clipPath id="265ae07dc0"><path d="M 0 44 L 2160 44 L 2160 832 L 0 832 Z M 0 44 " clip-rule="nonzero"/></clipPath><clipPath id="2bcad0f8eb"><path d="M -42.324219 13.4375 L 2232.136719 103.601562 L 2202.132812 860.507812 L -72.328125 770.34375 Z M -42.324219 13.4375 " clip-rule="nonzero"/></clipPath><clipPath id="ea9851c7e2"><path d="M -42.324219 13.4375 L 2232.136719 103.601562 L 2202.132812 860.507812 L -72.328125 770.34375 Z M -42.324219 13.4375 " clip-rule="nonzero"/></clipPath><clipPath id="45619780b6"><path d="M 0 52 L 2160 52 L 2160 829 L 0 829 Z M 0 52 " clip-rule="nonzero"/></clipPath><clipPath id="154d172ad0"><path d="M -42.324219 13.4375 L 2232.136719 103.601562 L 2202.132812 860.507812 L -72.328125 770.34375 Z M -42.324219 13.4375 " clip-rule="nonzero"/></clipPath><clipPath id="c435f49a3f"><path d="M -42.324219 13.4375 L 2232.136719 103.601562 L 2202.132812 860.507812 L -72.328125 770.34375 Z M -42.324219 13.4375 " clip-rule="nonzero"/></clipPath><clipPath id="c417d2a9c1"><path d="M 0 60 L 2160 60 L 2160 826 L 0 826 Z M 0 60 " clip-rule="nonzero"/></clipPath><clipPath id="ca514afac3"><path d="M -42.324219 13.4375 L 2232.136719 103.601562 L 2202.132812 860.507812 L -72.328125 770.34375 Z M -42.324219 13.4375 " clip-rule="nonzero"/></clipPath><clipPath id="73cd887397"><path d="M -42.324219 13.4375 L 2232.136719 103.601562 L 2202.132812 860.507812 L -72.328125 770.34375 Z M -42.324219 13.4375 " clip-rule="nonzero"/></clipPath><clipPath id="ffc1abf54a"><path d="M 0 68 L 2160 68 L 2160 824 L 0 824 Z M 0 68 " clip-rule="nonzero"/></clipPath><clipPath id="61bb54908b"><path d="M -42.324219 13.4375 L 2232.136719 103.601562 L 2202.132812 860.507812 L -72.328125 770.34375 Z M -42.324219 13.4375 " clip-rule="nonzero"/></clipPath><clipPath id="2010a71154"><path d="M -42.324219 13.4375 L 2232.136719 103.601562 L 2202.132812 860.507812 L -72.328125 770.34375 Z M -42.324219 13.4375 " clip-rule="nonzero"/></clipPath><clipPath id="d6fa7fc8b3"><path d="M 0 77 L 2160 77 L 2160 822 L 0 822 Z M 0 77 " clip-rule="nonzero"/></clipPath><clipPath id="56b4a41728"><path d="M -42.324219 13.4375 L 2232.136719 103.601562 L 2202.132812 860.507812 L -72.328125 770.34375 Z M -42.324219 13.4375 " clip-rule="nonzero"/></clipPath><clipPath id="46f69728b3"><path d="M -42.324219 13.4375 L 2232.136719 103.601562 L 2202.132812 860.507812 L -72.328125 770.34375 Z M -42.324219 13.4375 " clip-rule="nonzero"/></clipPath><clipPath id="47ffa56c7e"><path d="M 0 85 L 2160 85 L 2160 819 L 0 819 Z M 0 85 " clip-rule="nonzero"/></clipPath><clipPath id="9d1ce572c0"><path d="M -42.324219 13.4375 L 2232.136719 103.601562 L 2202.132812 860.507812 L -72.328125 770.34375 Z M -42.324219 13.4375 " clip-rule="nonzero"/></clipPath><clipPath id="45b5e8bc09"><path d="M -42.324219 13.4375 L 2232.136719 103.601562 L 2202.132812 860.507812 L -72.328125 770.34375 Z M -42.324219 13.4375 " clip-rule="nonzero"/></clipPath><clipPath id="28b66411c8"><path d="M 0 93 L 2160 93 L 2160 817 L 0 817 Z M 0 93 " clip-rule="nonzero"/></clipPath><clipPath id="f426d95e3d"><path d="M -42.324219 13.4375 L 2232.136719 103.601562 L 2202.132812 860.507812 L -72.328125 770.34375 Z M -42.324219 13.4375 " clip-rule="nonzero"/></clipPath><clipPath id="a282133311"><path d="M -42.324219 13.4375 L 2232.136719 103.601562 L 2202.132812 860.507812 L -72.328125 770.34375 Z M -42.324219 13.4375 " clip-rule="nonzero"/></clipPath><clipPath id="e6c66b4f91"><path d="M 0 101 L 2160 101 L 2160 815 L 0 815 Z M 0 101 " clip-rule="nonzero"/></clipPath><clipPath id="41430ed4f7"><path d="M -42.324219 13.4375 L 2232.136719 103.601562 L 2202.132812 860.507812 L -72.328125 770.34375 Z M -42.324219 13.4375 " clip-rule="nonzero"/></clipPath><clipPath id="03a08f9da1"><path d="M -42.324219 13.4375 L 2232.136719 103.601562 L 2202.132812 860.507812 L -72.328125 770.34375 Z M -42.324219 13.4375 " clip-rule="nonzero"/></clipPath><clipPath id="e543df90f9"><path d="M 0 110 L 2160 110 L 2160 813 L 0 813 Z M 0 110 " clip-rule="nonzero"/></clipPath><clipPath id="5744c1dc77"><path d="M -42.324219 13.4375 L 2232.136719 103.601562 L 2202.132812 860.507812 L -72.328125 770.34375 Z M -42.324219 13.4375 " clip-rule="nonzero"/></clipPath><clipPath id="f2041e2cf2"><path d="M -42.324219 13.4375 L 2232.136719 103.601562 L 2202.132812 860.507812 L -72.328125 770.34375 Z M -42.324219 13.4375 " clip-rule="nonzero"/></clipPath><clipPath id="62a976085a"><path d="M 0 118 L 2160 118 L 2160 812 L 0 812 Z M 0 118 " clip-rule="nonzero"/></clipPath><clipPath id="cedd89967f"><path d="M -42.324219 13.4375 L 2232.136719 103.601562 L 2202.132812 860.507812 L -72.328125 770.34375 Z M -42.324219 13.4375 " clip-rule="nonzero"/></clipPath><clipPath id="d68097de14"><path d="M -42.324219 13.4375 L 2232.136719 103.601562 L 2202.132812 860.507812 L -72.328125 770.34375 Z M -42.324219 13.4375 " clip-rule="nonzero"/></clipPath><clipPath id="49cc780385"><path d="M 0 126 L 2160 126 L 2160 811 L 0 811 Z M 0 126 " clip-rule="nonzero"/></clipPath><clipPath id="e86ae0dc3c"><path d="M -42.324219 13.4375 L 2232.136719 103.601562 L 2202.132812 860.507812 L -72.328125 770.34375 Z M -42.324219 13.4375 " clip-rule="nonzero"/></clipPath><clipPath id="b1b60c4c37"><path d="M -42.324219 13.4375 L 2232.136719 103.601562 L 2202.132812 860.507812 L -72.328125 770.34375 Z M -42.324219 13.4375 " clip-rule="nonzero"/></clipPath><clipPath id="7155641be7"><path d="M 0 134 L 2160 134 L 2160 810 L 0 810 Z M 0 134 " clip-rule="nonzero"/></clipPath><clipPath id="47cdf5dcfa"><path d="M -42.324219 13.4375 L 2232.136719 103.601562 L 2202.132812 860.507812 L -72.328125 770.34375 Z M -42.324219 13.4375 " clip-rule="nonzero"/></clipPath><clipPath id="091255a456"><path d="M -42.324219 13.4375 L 2232.136719 103.601562 L 2202.132812 860.507812 L -72.328125 770.34375 Z M -42.324219 13.4375 " clip-rule="nonzero"/></clipPath><clipPath id="259ad48b05"><path d="M 0 142 L 2160 142 L 2160 810 L 0 810 Z M 0 142 " clip-rule="nonzero"/></clipPath><clipPath id="fe91a07790"><path d="M -42.324219 13.4375 L 2232.136719 103.601562 L 2202.132812 860.507812 L -72.328125 770.34375 Z M -42.324219 13.4375 " clip-rule="nonzero"/></clipPath><clipPath id="39adb8a890"><path d="M -42.324219 13.4375 L 2232.136719 103.601562 L 2202.132812 860.507812 L -72.328125 770.34375 Z M -42.324219 13.4375 " clip-rule="nonzero"/></clipPath><clipPath id="a7f6f2dd77"><path d="M 0 150 L 2160 150 L 2160 811 L 0 811 Z M 0 150 " clip-rule="nonzero"/></clipPath><clipPath id="5030d1245b"><path d="M -42.324219 13.4375 L 2232.136719 103.601562 L 2202.132812 860.507812 L -72.328125 770.34375 Z M -42.324219 13.4375 " clip-rule="nonzero"/></clipPath><clipPath id="0d220ff27f"><path d="M -42.324219 13.4375 L 2232.136719 103.601562 L 2202.132812 860.507812 L -72.328125 770.34375 Z M -42.324219 13.4375 " clip-rule="nonzero"/></clipPath><clipPath id="0a753e4021"><path d="M 0 159 L 2160 159 L 2160 812 L 0 812 Z M 0 159 " clip-rule="nonzero"/></clipPath><clipPath id="09acbad696"><path d="M -42.324219 13.4375 L 2232.136719 103.601562 L 2202.132812 860.507812 L -72.328125 770.34375 Z M -42.324219 13.4375 " clip-rule="nonzero"/></clipPath><clipPath id="f57ca51615"><path d="M -42.324219 13.4375 L 2232.136719 103.601562 L 2202.132812 860.507812 L -72.328125 770.34375 Z M -42.324219 13.4375 " clip-rule="nonzero"/></clipPath><clipPath id="507eba1902"><path d="M 0 167 L 2160 167 L 2160 814 L 0 814 Z M 0 167 " clip-rule="nonzero"/></clipPath><clipPath id="efa4cf5f7e"><path d="M -42.324219 13.4375 L 2232.136719 103.601562 L 2202.132812 860.507812 L -72.328125 770.34375 Z M -42.324219 13.4375 " clip-rule="nonzero"/></clipPath><clipPath id="33ceb6b617"><path d="M -42.324219 13.4375 L 2232.136719 103.601562 L 2202.132812 860.507812 L -72.328125 770.34375 Z M -42.324219 13.4375 " clip-rule="nonzero"/></clipPath><clipPath id="ee76ce5d39"><path d="M 0 182 L 2160 182 L 2160 796 L 0 796 Z M 0 182 " clip-rule="nonzero"/></clipPath><clipPath id="8c6bc8a4f4"><path d="M -42.324219 13.4375 L 2232.136719 103.601562 L 2202.132812 860.507812 L -72.328125 770.34375 Z M -42.324219 13.4375 " clip-rule="nonzero"/></clipPath><clipPath id="94750b6fca"><path d="M -42.324219 13.4375 L 2232.136719 103.601562 L 2202.132812 860.507812 L -72.328125 770.34375 Z M -42.324219 13.4375 " clip-rule="nonzero"/></clipPath><clipPath id="5b852eb14a"><path d="M 0 197 L 2160 197 L 2160 778 L 0 778 Z M 0 197 " clip-rule="nonzero"/></clipPath><clipPath id="e8b2de9ec9"><path d="M -42.324219 13.4375 L 2232.136719 103.601562 L 2202.132812 860.507812 L -72.328125 770.34375 Z M -42.324219 13.4375 " clip-rule="nonzero"/></clipPath><clipPath id="f2ae75a970"><path d="M -42.324219 13.4375 L 2232.136719 103.601562 L 2202.132812 860.507812 L -72.328125 770.34375 Z M -42.324219 13.4375 " clip-rule="nonzero"/></clipPath><clipPath id="c7a3b98df0"><path d="M 0 212 L 2160 212 L 2160 762 L 0 762 Z M 0 212 " clip-rule="nonzero"/></clipPath><clipPath id="6c0b567fa3"><path d="M -42.324219 13.4375 L 2232.136719 103.601562 L 2202.132812 860.507812 L -72.328125 770.34375 Z M -42.324219 13.4375 " clip-rule="nonzero"/></clipPath><clipPath id="c0a93da412"><path d="M -42.324219 13.4375 L 2232.136719 103.601562 L 2202.132812 860.507812 L -72.328125 770.34375 Z M -42.324219 13.4375 " clip-rule="nonzero"/></clipPath><clipPath id="438408d628"><path d="M 0 227 L 2160 227 L 2160 746 L 0 746 Z M 0 227 " clip-rule="nonzero"/></clipPath><clipPath id="ca2d4afa44"><path d="M -42.324219 13.4375 L 2232.136719 103.601562 L 2202.132812 860.507812 L -72.328125 770.34375 Z M -42.324219 13.4375 " clip-rule="nonzero"/></clipPath><clipPath id="2907b41c85"><path d="M -42.324219 13.4375 L 2232.136719 103.601562 L 2202.132812 860.507812 L -72.328125 770.34375 Z M -42.324219 13.4375 " clip-rule="nonzero"/></clipPath><clipPath id="5bcca71aa8"><path d="M 0 242 L 2160 242 L 2160 732 L 0 732 Z M 0 242 " clip-rule="nonzero"/></clipPath><clipPath id="4a54299a1e"><path d="M -42.324219 13.4375 L 2232.136719 103.601562 L 2202.132812 860.507812 L -72.328125 770.34375 Z M -42.324219 13.4375 " clip-rule="nonzero"/></clipPath><clipPath id="7498a07ef4"><path d="M -42.324219 13.4375 L 2232.136719 103.601562 L 2202.132812 860.507812 L -72.328125 770.34375 Z M -42.324219 13.4375 " clip-rule="nonzero"/></clipPath><clipPath id="47a29437f8"><path d="M 0 257 L 2160 257 L 2160 719 L 0 719 Z M 0 257 " clip-rule="nonzero"/></clipPath><clipPath id="ff66b62343"><path d="M -42.324219 13.4375 L 2232.136719 103.601562 L 2202.132812 860.507812 L -72.328125 770.34375 Z M -42.324219 13.4375 " clip-rule="nonzero"/></clipPath><clipPath id="67f579110a"><path d="M -42.324219 13.4375 L 2232.136719 103.601562 L 2202.132812 860.507812 L -72.328125 770.34375 Z M -42.324219 13.4375 " clip-rule="nonzero"/></clipPath><clipPath id="201977438f"><path d="M 0 272 L 2160 272 L 2160 708 L 0 708 Z M 0 272 " clip-rule="nonzero"/></clipPath><clipPath id="237400eec0"><path d="M -42.324219 13.4375 L 2232.136719 103.601562 L 2202.132812 860.507812 L -72.328125 770.34375 Z M -42.324219 13.4375 " clip-rule="nonzero"/></clipPath><clipPath id="91af4b9b39"><path d="M -42.324219 13.4375 L 2232.136719 103.601562 L 2202.132812 860.507812 L -72.328125 770.34375 Z M -42.324219 13.4375 " clip-rule="nonzero"/></clipPath><clipPath id="b2a23d9112"><path d="M 0 286 L 2160 286 L 2160 698 L 0 698 Z M 0 286 " clip-rule="nonzero"/></clipPath><clipPath id="f3786958b2"><path d="M -42.324219 13.4375 L 2232.136719 103.601562 L 2202.132812 860.507812 L -72.328125 770.34375 Z M -42.324219 13.4375 " clip-rule="nonzero"/></clipPath><clipPath id="0b7d86b2be"><path d="M -42.324219 13.4375 L 2232.136719 103.601562 L 2202.132812 860.507812 L -72.328125 770.34375 Z M -42.324219 13.4375 " clip-rule="nonzero"/></clipPath><clipPath id="d7ed47c764"><path d="M 0 301 L 2160 301 L 2160 690 L 0 690 Z M 0 301 " clip-rule="nonzero"/></clipPath><clipPath id="74f7944491"><path d="M -42.324219 13.4375 L 2232.136719 103.601562 L 2202.132812 860.507812 L -72.328125 770.34375 Z M -42.324219 13.4375 " clip-rule="nonzero"/></clipPath><clipPath id="1da299c28f"><path d="M -42.324219 13.4375 L 2232.136719 103.601562 L 2202.132812 860.507812 L -72.328125 770.34375 Z M -42.324219 13.4375 " clip-rule="nonzero"/></clipPath><clipPath id="52478aa4cb"><path d="M 0 312 L 2160 312 L 2160 683 L 0 683 Z M 0 312 " clip-rule="nonzero"/></clipPath><clipPath id="1ce746ab05"><path d="M -42.324219 13.4375 L 2232.136719 103.601562 L 2202.132812 860.507812 L -72.328125 770.34375 Z M -42.324219 13.4375 " clip-rule="nonzero"/></clipPath><clipPath id="21f017f0e0"><path d="M -42.324219 13.4375 L 2232.136719 103.601562 L 2202.132812 860.507812 L -72.328125 770.34375 Z M -42.324219 13.4375 " clip-rule="nonzero"/></clipPath><clipPath id="b305f9ed26"><path d="M 0 310 L 2160 310 L 2160 679 L 0 679 Z M 0 310 " clip-rule="nonzero"/></clipPath><clipPath id="b0c7187b9d"><path d="M -42.324219 13.4375 L 2232.136719 103.601562 L 2202.132812 860.507812 L -72.328125 770.34375 Z M -42.324219 13.4375 " clip-rule="nonzero"/></clipPath><clipPath id="5472c19809"><path d="M -42.324219 13.4375 L 2232.136719 103.601562 L 2202.132812 860.507812 L -72.328125 770.34375 Z M -42.324219 13.4375 " clip-rule="nonzero"/></clipPath><clipPath id="8daaf67d4b"><path d="M 0 306 L 2160 306 L 2160 676 L 0 676 Z M 0 306 " clip-rule="nonzero"/></clipPath><clipPath id="6b7c07aac4"><path d="M -42.324219 13.4375 L 2232.136719 103.601562 L 2202.132812 860.507812 L -72.328125 770.34375 Z M -42.324219 13.4375 " clip-rule="nonzero"/></clipPath><clipPath id="8d308d5412"><path d="M -42.324219 13.4375 L 2232.136719 103.601562 L 2202.132812 860.507812 L -72.328125 770.34375 Z M -42.324219 13.4375 " clip-rule="nonzero"/></clipPath><clipPath id="7fd7af309d"><path d="M 0 298 L 2160 298 L 2160 675 L 0 675 Z M 0 298 " clip-rule="nonzero"/></clipPath><clipPath id="bb2af7f3dd"><path d="M -42.324219 13.4375 L 2232.136719 103.601562 L 2202.132812 860.507812 L -72.328125 770.34375 Z M -42.324219 13.4375 " clip-rule="nonzero"/></clipPath><clipPath id="abe7b0c2f2"><path d="M -42.324219 13.4375 L 2232.136719 103.601562 L 2202.132812 860.507812 L -72.328125 770.34375 Z M -42.324219 13.4375 " clip-rule="nonzero"/></clipPath><clipPath id="41240835ec"><path d="M 0 288 L 2160 288 L 2160 675 L 0 675 Z M 0 288 " clip-rule="nonzero"/></clipPath><clipPath id="1137ff970b"><path d="M -42.324219 13.4375 L 2232.136719 103.601562 L 2202.132812 860.507812 L -72.328125 770.34375 Z M -42.324219 13.4375 " clip-rule="nonzero"/></clipPath><clipPath id="4e39b25c31"><path d="M -42.324219 13.4375 L 2232.136719 103.601562 L 2202.132812 860.507812 L -72.328125 770.34375 Z M -42.324219 13.4375 " clip-rule="nonzero"/></clipPath><clipPath id="26734eba5e"><path d="M 0 275 L 2160 275 L 2160 684 L 0 684 Z M 0 275 " clip-rule="nonzero"/></clipPath><clipPath id="78f8d70f75"><path d="M -42.324219 13.4375 L 2232.136719 103.601562 L 2202.132812 860.507812 L -72.328125 770.34375 Z M -42.324219 13.4375 " clip-rule="nonzero"/></clipPath><clipPath id="61167c3fd1"><path d="M -42.324219 13.4375 L 2232.136719 103.601562 L 2202.132812 860.507812 L -72.328125 770.34375 Z M -42.324219 13.4375 " clip-rule="nonzero"/></clipPath><clipPath id="37860cb2e2"><path d="M 0 261 L 2160 261 L 2160 694 L 0 694 Z M 0 261 " clip-rule="nonzero"/></clipPath><clipPath id="000bb67c5d"><path d="M -42.324219 13.4375 L 2232.136719 103.601562 L 2202.132812 860.507812 L -72.328125 770.34375 Z M -42.324219 13.4375 " clip-rule="nonzero"/></clipPath><clipPath id="6a382bffb0"><path d="M -42.324219 13.4375 L 2232.136719 103.601562 L 2202.132812 860.507812 L -72.328125 770.34375 Z M -42.324219 13.4375 " clip-rule="nonzero"/></clipPath><clipPath id="073cc71054"><rect x="0" width="2160" y="0" height="858"/></clipPath></defs><g mask="url(#2708d538ed)"><g transform="matrix(1, 0, 0, 1, 0, 425)"><g clip-path="url(#073cc71054)"><g clip-path="url(#826c92c479)"><g clip-path="url(#96ae02dd49)"><g clip-path="url(#b8775b89b7)"><path stroke-linecap="butt" transform="matrix(2.406471, 0.0953943, -0.0953943, 2.406471, -41.937146, 13.454688)" fill="none" stroke-linejoin="miter" d="M 0.499283 126.599401 C 6.499768 80.599515 40.500548 39.299206 84.500542 24.700676 C 128.500471 10.100526 180.500063 22.700212 212.799362 55.999454 C 241.900018 86.000484 254.000665 128.000662 272.399569 165.499941 C 294.09969 209.499241 326.200759 249.099593 367.700643 275.399987 C 409.200526 301.700381 460.199697 314.00047 508.500045 304.899781 C 566.100661 294.099376 614.400237 254.800198 653.299864 211.000713 C 692.199427 167.199606 724.600223 117.599855 766.000572 76.199386 C 807.399364 34.800602 861.200526 1.000343 919.80031 0.500288 " stroke="#586c5a" stroke-width="1" stroke-opacity="1" stroke-miterlimit="10"/></g></g></g><g clip-path="url(#265ae07dc0)"><g clip-path="url(#2bcad0f8eb)"><g clip-path="url(#ea9851c7e2)"><path stroke-linecap="butt" transform="matrix(2.406471, 0.0953943, -0.0953943, 2.406471, -41.937146, 13.454688)" fill="none" stroke-linejoin="miter" d="M 0.700042 131.500082 C 8.299604 84.399565 43.900404 42.800462 89.400356 27.999629 C 133.600692 13.500291 185.300549 25.499902 218.500261 57.599597 C 234.600277 73.099506 245.9003 92.200091 256.000713 112.200423 C 264.600624 129.40011 272.299782 147.299403 281.199291 164.399559 C 303.799286 207.799928 336.000289 247.300548 377.400239 273.700674 C 418.10018 299.599377 468.199202 312.000077 515.599338 303.89927 C 572.300482 294.199358 620.299996 257.199202 659.399226 215.200079 C 698.299468 173.299745 730.69946 125.399545 771.300473 84.800172 C 811.8998 44.199242 863.600525 10.399461 919.300257 7.499988 " stroke="#586c5a" stroke-width="1" stroke-opacity="1" stroke-miterlimit="10"/></g></g></g><g clip-path="url(#45619780b6)"><g clip-path="url(#154d172ad0)"><g clip-path="url(#c435f49a3f)"><path stroke-linecap="butt" transform="matrix(2.406471, 0.0953943, -0.0953943, 2.406471, -41.937146, 13.454688)" fill="none" stroke-linejoin="miter" d="M 0.800127 136.399884 C 10.100182 88.300226 47.300196 46.300097 94.300235 31.300203 C 138.59936 16.999852 190.099413 28.299656 224.10055 59.200482 C 240.500502 74.19991 252.499992 92.600751 263.200617 112.100061 C 272.399861 128.899401 280.499494 146.500378 289.799413 163.300597 C 313.300839 206.100349 345.500156 245.599412 386.999838 272.099472 C 427.000641 297.600603 475.999784 310.100094 522.700315 302.900316 C 578.500304 294.29934 626.300494 259.600705 665.499329 219.500056 C 704.299576 179.499616 736.799439 133.299845 776.59943 93.500011 C 816.300367 53.699235 866.000589 19.8002 918.799326 14.600362 " stroke="#586c5a" stroke-width="1" stroke-opacity="1" stroke-miterlimit="10"/></g></g></g><g clip-path="url(#c417d2a9c1)"><g clip-path="url(#ca514afac3)"><g clip-path="url(#73cd887397)"><path stroke-linecap="butt" transform="matrix(2.406471, 0.0953943, -0.0953943, 2.406471, -41.937146, 13.454688)" fill="none" stroke-linejoin="miter" d="M 1.000145 141.199955 C 11.900695 92.199266 50.700729 49.900344 99.199372 34.500165 C 143.599648 20.499349 195.000775 30.90056 229.699355 60.600145 C 246.499176 74.99936 259.099821 92.800125 270.400723 111.800035 C 280.10031 128.199706 288.799275 145.400336 298.399671 162.000349 C 322.899961 204.200492 355.100222 243.600501 396.600581 270.19955 C 435.899617 295.400609 483.899758 307.800103 529.800688 301.599465 C 584.599717 294.200399 632.299445 261.799366 671.500781 223.399761 C 710.300829 185.400767 742.899821 140.800815 781.700746 101.800256 C 820.600726 62.800639 868.199704 28.799852 918.100689 21.299521 " stroke="#586c5a" stroke-width="1" stroke-opacity="1" stroke-miterlimit="10"/></g></g></g><g clip-path="url(#ffc1abf54a)"><g clip-path="url(#61bb54908b)"><g clip-path="url(#2010a71154)"><path stroke-linecap="butt" transform="matrix(2.406471, 0.0953943, -0.0953943, 2.406471, -41.937146, 13.454688)" fill="none" stroke-linejoin="miter" d="M 1.100229 146.099757 C 13.700531 95.999316 54.100521 53.399979 104.099251 37.800739 C 148.599259 23.899855 199.799639 33.700314 235.299579 62.199409 C 252.499334 76.000031 265.800124 93.200043 277.600627 111.699673 C 287.79988 127.600685 296.999866 144.500636 306.999728 160.899766 C 332.400772 202.400302 364.700764 241.900245 406.099634 268.600711 C 444.699339 293.399336 491.70034 305.900119 536.79937 300.599696 C 590.700484 294.299438 638.199268 264.199991 677.499532 227.599869 C 716.200262 191.599759 748.900746 148.700172 786.899972 110.400162 C 824.899941 72.200763 870.500713 38.199648 917.500025 28.299962 " stroke="#586c5a" stroke-width="1" stroke-opacity="1" stroke-miterlimit="10"/></g></g></g><g clip-path="url(#d6fa7fc8b3)"><g clip-path="url(#56b4a41728)"><g clip-path="url(#46f69728b3)"><path stroke-linecap="butt" transform="matrix(2.406471, 0.0953943, -0.0953943, 2.406471, -41.937146, 13.454688)" fill="none" stroke-linejoin="miter" d="M 1.300247 150.899827 C 15.499488 99.900041 57.500313 56.899615 108.900076 41.100369 C 153.500557 27.400029 204.499514 36.500746 240.799192 63.799415 C 258.400438 76.99976 272.300762 93.59976 284.69992 111.600053 C 295.500127 127.100654 305.100523 143.700667 315.499175 159.799925 C 341.800028 200.699909 374.099278 240.099241 415.599501 266.899575 C 453.500067 291.300629 499.50018 303.899525 543.799672 299.599863 C 596.799695 294.400161 644.000037 266.599672 683.499904 231.799913 C 722.199692 197.700639 754.899372 156.500604 792.099198 119.000069 C 829.399699 81.500413 873.00071 47.500656 916.999295 35.200672 " stroke="#586c5a" stroke-width="1" stroke-opacity="1" stroke-miterlimit="10"/></g></g></g><g clip-path="url(#47ffa56c7e)"><g clip-path="url(#9d1ce572c0)"><g clip-path="url(#45b5e8bc09)"><path stroke-linecap="butt" transform="matrix(2.406471, 0.0953943, -0.0953943, 2.406471, -41.937146, 13.454688)" fill="none" stroke-linejoin="miter" d="M 1.400332 155.799629 C 17.299323 103.700091 60.899427 60.30026 113.79989 44.399322 C 158.499225 30.89959 209.3 39.300435 246.500092 65.399558 C 264.499586 77.999754 278.999445 93.999742 292.0005 111.50057 C 303.299364 126.599946 313.500714 142.799548 324.199907 158.700221 C 351.499624 199.000595 383.800495 238.399863 425.299775 265.299252 C 462.499453 289.299558 507.399816 302.000484 550.99964 298.60023 C 603.100128 294.499401 650.100404 268.899823 689.69994 236.000158 C 728.299734 203.800778 761.199895 164.30043 797.49971 127.600113 C 833.800266 91.000406 875.399967 56.799163 916.499243 42.200372 " stroke="#586c5a" stroke-width="1" stroke-opacity="1" stroke-miterlimit="10"/></g></g></g><g clip-path="url(#28b66411c8)"><g clip-path="url(#f426d95e3d)"><g clip-path="url(#a282133311)"><path stroke-linecap="butt" transform="matrix(2.406471, 0.0953943, -0.0953943, 2.406471, -41.937146, 13.454688)" fill="none" stroke-linejoin="miter" d="M 1.599471 160.700374 C 19.099901 107.600752 64.299219 63.799896 118.699769 47.699895 C 163.599446 34.299355 214.200418 42.000393 252.10038 67.000442 C 270.399811 79.100158 285.600758 94.400338 299.299394 111.399531 C 311.100286 126.100794 321.800358 141.900791 332.900639 157.600516 C 361.100167 197.300339 393.399417 236.699671 434.900382 263.600616 C 471.400792 287.200109 515.300331 300.000769 558.099875 297.500665 C 609.200218 294.49945 655.999485 271.199837 695.69957 240.099592 C 734.20011 209.900715 767.1994 172.000187 802.699815 136.099345 C 838.10036 100.299855 877.700298 66.099969 915.899458 49.100138 " stroke="#586c5a" stroke-width="1" stroke-opacity="1" stroke-miterlimit="10"/></g></g></g><g clip-path="url(#e6c66b4f91)"><g clip-path="url(#41430ed4f7)"><g clip-path="url(#03a08f9da1)"><path stroke-linecap="butt" transform="matrix(2.406471, 0.0953943, -0.0953943, 2.406471, -41.937146, 13.454688)" fill="none" stroke-linejoin="miter" d="M 1.700434 165.499502 C 20.899737 111.400802 67.700631 67.299467 123.600527 50.899794 C 168.500067 37.700539 218.999283 44.800147 257.699927 68.500716 C 276.399227 80.000219 292.199708 94.700388 306.500241 111.200115 C 318.900402 125.49941 329.999264 140.999535 341.60063 156.400202 C 370.699967 195.499472 403.100835 234.800628 444.599914 261.899682 C 480.400243 285.200658 523.299836 298.000376 565.300721 296.400358 C 615.500715 294.600311 662.099852 273.499988 701.90055 244.200783 C 740.299409 215.900243 773.400191 179.70008 808.000594 144.599455 C 842.600118 109.599505 880.100498 75.299423 915.400349 56.000784 " stroke="#586c5a" stroke-width="1" stroke-opacity="1" stroke-miterlimit="10"/></g></g></g><g clip-path="url(#e543df90f9)"><g clip-path="url(#5744c1dc77)"><g clip-path="url(#f2041e2cf2)"><path stroke-linecap="butt" transform="matrix(2.406471, 0.0953943, -0.0953943, 2.406471, -41.937146, 13.454688)" fill="none" stroke-linejoin="miter" d="M 1.899573 170.400247 C 22.70025 115.299843 71.100487 70.800723 128.500406 54.200367 C 173.500355 41.200035 223.799768 47.599837 263.300151 70.09998 C 282.39932 80.99927 298.799336 95.099427 313.700145 111.099753 C 326.599972 124.900389 338.300529 140.100714 350.200687 155.299619 C 380.299831 193.700225 412.699757 233.100436 454.200456 260.199426 C 489.299897 283.099654 531.100619 295.900727 572.399272 295.299237 C 621.699795 294.599682 668.000554 275.799937 707.99917 248.299539 C 746.400329 221.899707 779.599361 187.400038 813.300495 153.200241 C 847.000008 119.000508 882.40083 84.600229 914.799622 62.999604 " stroke="#586c5a" stroke-width="1" stroke-opacity="1" stroke-miterlimit="10"/></g></g></g><g clip-path="url(#62a976085a)"><g clip-path="url(#cedd89967f)"><g clip-path="url(#d68097de14)"><path stroke-linecap="butt" transform="matrix(2.406471, 0.0953943, -0.0953943, 2.406471, -41.937146, 13.454688)" fill="none" stroke-linejoin="miter" d="M 2.100268 175.299307 C 24.599818 119.199826 74.599269 74.299681 133.40022 57.49932 C 178.500644 44.699532 228.599576 50.300537 268.900375 71.699244 C 288.399478 81.999941 305.400649 95.500023 320.900049 110.999392 C 334.300219 124.400359 346.499435 139.199457 358.800808 154.200656 C 389.799763 192.000711 422.200567 231.300247 463.699508 258.600586 C 498.099682 281.100002 538.899581 294.000808 579.400316 294.400014 C 627.799683 294.799396 673.899434 278.299616 713.899608 252.599315 C 752.200773 228.099377 785.499675 195.300137 818.399788 161.899879 C 851.2999 128.499622 884.700218 94.000089 914.1997 70.100657 " stroke="#586c5a" stroke-width="1" stroke-opacity="1" stroke-miterlimit="10"/></g></g></g><g clip-path="url(#49cc780385)"><g clip-path="url(#e86ae0dc3c)"><g clip-path="url(#b1b60c4c37)"><path stroke-linecap="butt" transform="matrix(2.406471, 0.0953943, -0.0953943, 2.406471, -41.937146, 13.454688)" fill="none" stroke-linejoin="miter" d="M 2.199675 180.100119 C 26.399653 122.999876 77.899329 77.699384 138.300099 60.799893 C 183.500254 48.100038 233.500672 53.099485 274.599653 73.299451 C 294.500247 82.999871 312.099331 95.900005 328.200628 110.899909 C 342.200132 123.900529 354.799757 138.39969 367.499855 153.099396 C 399.400305 190.300454 431.900099 229.599313 473.400661 256.899588 C 507.100012 278.999876 546.900706 292.00035 586.599542 293.299771 C 634.000448 294.800323 679.90007 280.499833 720.099645 256.79956 C 758.299193 234.19958 791.699588 203.100705 823.800299 170.499923 C 855.800401 137.899883 887.299882 103.399409 913.800258 77.099614 " stroke="#586c5a" stroke-width="1" stroke-opacity="1" stroke-miterlimit="10"/></g></g></g><g clip-path="url(#7155641be7)"><g clip-path="url(#47cdf5dcfa)"><g clip-path="url(#091255a456)"><path stroke-linecap="butt" transform="matrix(2.406471, 0.0953943, -0.0953943, 2.406471, -41.937146, 13.454688)" fill="none" stroke-linejoin="miter" d="M 2.400371 184.999179 C 28.200231 126.900537 81.400674 81.099223 143.199978 64.100467 C 188.500543 51.599535 238.299536 55.899239 280.1992 74.799725 C 300.39973 83.999664 318.699902 96.19999 335.399855 110.700557 C 349.899637 123.299888 363.10028 137.400259 376.099235 151.899823 C 409.000105 188.499587 441.400232 227.700133 482.999583 255.199396 C 515.99973 276.900492 554.700546 289.999756 593.699778 292.200206 C 640.20027 294.900305 685.800772 282.799783 726.19995 260.899873 C 764.299503 240.199785 797.900378 210.800599 829.000468 179.000775 C 860.199548 147.200275 889.599471 112.599605 913.200474 83.999381 " stroke="#586c5a" stroke-width="1" stroke-opacity="1" stroke-miterlimit="10"/></g></g></g><g clip-path="url(#259ad48b05)"><g clip-path="url(#fe91a07790)"><g clip-path="url(#39adb8a890)"><path stroke-linecap="butt" transform="matrix(2.406471, 0.0953943, -0.0953943, 2.406471, -41.937146, 13.454688)" fill="none" stroke-linejoin="miter" d="M 2.50052 189.900602 C 30.000066 130.700587 84.700798 84.500547 148.100736 67.300365 C 193.499412 54.899431 243.099344 58.599939 285.800367 76.299934 C 306.400766 84.899661 325.399463 96.499298 342.600638 110.499521 C 357.600086 122.600192 371.300129 136.399948 384.700235 150.700185 C 418.500238 186.600408 451.000032 225.899266 492.500393 253.399206 C 524.800394 274.800165 562.499709 287.900172 600.700281 291.000708 C 646.299618 294.799743 691.599379 284.899253 732.099848 264.899373 C 770.09947 246.100799 803.800152 218.400422 834.099221 187.400138 C 864.39991 156.39979 891.799329 121.699867 912.600012 90.800158 " stroke="#586c5a" stroke-width="1" stroke-opacity="1" stroke-miterlimit="10"/></g></g></g><g clip-path="url(#a7f6f2dd77)"><g clip-path="url(#5030d1245b)"><g clip-path="url(#0d220ff27f)"><path stroke-linecap="butt" transform="matrix(2.406471, 0.0953943, -0.0953943, 2.406471, -41.937146, 13.454688)" fill="none" stroke-linejoin="miter" d="M 2.700537 194.700673 C 31.80058 134.599627 88.099848 87.899571 152.89994 70.60006 C 198.400032 58.300615 247.799219 61.40037 291.299981 77.89994 C 312.300249 85.899453 331.900165 96.900635 349.800606 110.40078 C 365.399323 122.099483 379.500719 135.500248 393.300293 149.599602 C 428.000105 184.899272 460.599897 224.10002 502.100056 251.799625 C 533.69917 272.799835 570.399281 285.999511 607.800316 290.100808 C 652.500182 295.000336 697.499944 287.400488 738.199951 269.19935 C 776.099578 252.30067 809.900131 226.300722 839.399799 196.099914 C 868.800477 165.899783 894.20007 131.199596 912.099959 97.799857 " stroke="#586c5a" stroke-width="1" stroke-opacity="1" stroke-miterlimit="10"/></g></g></g><g clip-path="url(#0a753e4021)"><g clip-path="url(#09acbad696)"><g clip-path="url(#f57ca51615)"><path stroke-linecap="butt" transform="matrix(2.406471, 0.0953943, -0.0953943, 2.406471, -41.937146, 13.454688)" fill="none" stroke-linejoin="miter" d="M 2.800622 199.600475 C 33.599537 138.500352 91.499704 91.400828 157.799819 73.900633 C 203.400321 61.800111 252.700315 64.199318 296.999259 79.500147 C 318.399397 86.899448 338.600468 97.300553 357.099501 110.29974 C 373.200245 121.600331 387.900031 134.699804 401.999404 148.499962 C 437.699702 183.199959 470.200439 222.399763 511.799653 250.100311 C 542.699499 270.699709 578.399729 283.900063 614.999541 289.000565 C 658.699262 294.999707 703.499838 289.500095 744.39931 273.300605 C 782.100766 258.200201 816.199912 233.999938 844.799569 204.599347 C 873.39929 175.200376 896.699324 140.399993 911.69984 104.699825 " stroke="#586c5a" stroke-width="1" stroke-opacity="1" stroke-miterlimit="10"/></g></g></g><g clip-path="url(#507eba1902)"><g clip-path="url(#efa4cf5f7e)"><g clip-path="url(#33ceb6b617)"><path stroke-linecap="butt" transform="matrix(2.406471, 0.0953943, -0.0953943, 2.406471, -41.937146, 13.454688)" fill="none" stroke-linejoin="miter" d="M 2.999697 204.499599 C 35.399372 142.300403 94.899496 94.900463 162.699633 77.199586 C 230.499835 59.50033 305.600647 71.799469 364.299405 110.199379 C 422.799441 148.500033 463.30077 209.599799 521.400195 248.400055 C 587.699759 292.800031 675.100206 303.79999 750.400561 277.399975 C 825.699295 251.000023 887.000745 187.700589 910.999445 111.600333 " stroke="#586c5a" stroke-width="1" stroke-opacity="1" stroke-miterlimit="10"/></g></g></g><g clip-path="url(#ee76ce5d39)"><g clip-path="url(#8c6bc8a4f4)"><g clip-path="url(#94750b6fca)"><path stroke-linecap="butt" transform="matrix(2.406471, 0.0953943, -0.0953943, 2.406471, -41.937146, 13.454688)" fill="none" stroke-linejoin="miter" d="M 3.399443 208.4006 C 35.100327 146.099246 95.39999 99.500328 163.299861 82.800275 C 231.199731 66.100222 305.600196 79.19978 364.600172 116.599204 C 423.400749 153.800382 465.800612 212.09949 524.300032 247.600101 C 568.599419 274.500495 621.300439 286.900313 673.500458 283.999973 C 699.600029 282.600141 725.499518 277.299508 750.200529 268.299976 C 774.999853 259.200776 798.300294 246.399975 819.500624 230.700556 C 861.799667 199.399893 895.499694 156.900578 913.099945 110.700585 " stroke="#586c5a" stroke-width="1" stroke-opacity="1" stroke-miterlimit="10"/></g></g></g><g clip-path="url(#5b852eb14a)"><g clip-path="url(#e8b2de9ec9)"><g clip-path="url(#f2ae75a970)"><path stroke-linecap="butt" transform="matrix(2.406471, 0.0953943, -0.0953943, 2.406471, -41.937146, 13.454688)" fill="none" stroke-linejoin="miter" d="M 3.799866 212.400592 C 34.800468 150.000385 95.999475 104.099515 163.799413 88.400085 C 231.599352 72.700655 305.499813 86.699823 364.900262 122.900039 C 424.100304 158.999443 468.400388 214.499449 527.299803 246.700416 C 571.700603 270.999625 623.500656 280.899678 674.700656 276.39952 C 700.299406 274.199811 725.700236 268.399513 750.100431 259.100245 C 774.500562 249.799357 797.599781 237.00004 818.800451 221.800561 C 861.099495 191.400789 895.900089 151.399822 915.200583 109.59955 " stroke="#586c5a" stroke-width="1" stroke-opacity="1" stroke-miterlimit="10"/></g></g></g><g clip-path="url(#c7a3b98df0)"><g clip-path="url(#6c0b567fa3)"><g clip-path="url(#c0a93da412)"><path stroke-linecap="butt" transform="matrix(2.406471, 0.0953943, -0.0953943, 2.406471, -41.937146, 13.454688)" fill="none" stroke-linejoin="miter" d="M 4.099615 216.399704 C 34.499802 153.799293 96.49997 108.69938 164.299708 94.100506 C 232.099382 79.500012 305.39943 94.199866 365.099476 129.39966 C 424.69979 164.499521 470.800362 217.100493 530.200318 245.999452 C 574.699355 267.699227 625.599384 275.00046 675.799364 268.900484 C 700.900535 265.900769 725.899334 259.499581 749.899658 249.899636 C 774.000657 240.300569 796.899269 227.600105 818.100278 212.900567 C 860.49987 183.399323 896.399539 145.900008 917.199731 108.599933 " stroke="#586c5a" stroke-width="1" stroke-opacity="1" stroke-miterlimit="10"/></g></g></g><g clip-path="url(#438408d628)"><g clip-path="url(#ca2d4afa44)"><g clip-path="url(#2907b41c85)"><path stroke-linecap="butt" transform="matrix(2.406471, 0.0953943, -0.0953943, 2.406471, -41.937146, 13.454688)" fill="none" stroke-linejoin="miter" d="M 4.499361 220.300705 C 34.199201 157.599822 96.999787 113.200255 164.899871 99.699574 C 232.800019 86.200515 305.300667 101.699844 365.499297 135.800428 C 425.500763 169.800071 473.399195 219.599507 533.200831 245.200377 C 577.799725 264.300654 627.800344 269.100435 677.099293 261.399964 C 701.700523 257.499697 726.200727 250.600465 749.899292 240.799838 C 773.599542 231.000768 796.29923 218.400714 817.600448 204.099764 C 860.00004 175.499411 897.099331 140.499385 919.500775 107.599711 " stroke="#586c5a" stroke-width="1" stroke-opacity="1" stroke-miterlimit="10"/></g></g></g><g clip-path="url(#5bcca71aa8)"><g clip-path="url(#4a54299a1e)"><g clip-path="url(#7498a07ef4)"><path stroke-linecap="butt" transform="matrix(2.406471, 0.0953943, -0.0953943, 2.406471, -41.937146, 13.454688)" fill="none" stroke-linejoin="miter" d="M 4.899784 224.300696 C 33.90022 161.400286 97.599271 117.799442 165.500098 105.300263 C 233.399241 92.799528 305.300217 109.100155 365.800065 142.200253 C 426.099506 175.199539 475.89978 222.199809 536.199659 244.399746 C 580.899289 260.799849 629.999683 263.200475 678.300233 253.900121 C 702.400642 249.199978 726.399824 241.700533 749.699261 231.69984 C 773.100251 221.59935 795.500406 209.100446 816.799664 195.200511 C 859.299868 167.500308 897.499791 135.000249 921.499923 106.600093 " stroke="#586c5a" stroke-width="1" stroke-opacity="1" stroke-miterlimit="10"/></g></g></g><g clip-path="url(#47a29437f8)"><g clip-path="url(#ff66b62343)"><g clip-path="url(#67f579110a)"><path stroke-linecap="butt" transform="matrix(2.406471, 0.0953943, -0.0953943, 2.406471, -41.937146, 13.454688)" fill="none" stroke-linejoin="miter" d="M 5.300208 228.300687 C 33.699351 165.300747 98.200441 122.400186 166.000393 111.000684 C 233.80028 99.599562 305.200511 116.699188 366.099953 148.700753 C 426.800546 180.599821 478.299689 224.799232 539.199228 243.699726 C 583.900404 257.599997 632.199699 257.399505 679.500229 246.499333 C 703.099818 240.999313 726.700274 232.900471 749.599904 222.60072 C 772.600145 212.300226 794.899625 199.800444 816.199223 186.400449 C 858.700106 159.700127 897.999918 129.599425 923.700356 105.600612 " stroke="#586c5a" stroke-width="1" stroke-opacity="1" stroke-miterlimit="10"/></g></g></g><g clip-path="url(#201977438f)"><g clip-path="url(#237400eec0)"><g clip-path="url(#91af4b9b39)"><path stroke-linecap="butt" transform="matrix(2.406471, 0.0953943, -0.0953943, 2.406471, -41.937146, 13.454688)" fill="none" stroke-linejoin="miter" d="M 5.699889 232.200068 C 33.400306 169.099591 98.699315 127.000115 166.600556 116.599753 C 234.500176 106.199455 305.200061 124.099499 366.400721 155.100578 C 427.499964 186.000168 480.800274 227.399534 542.100687 242.899708 C 586.799424 254.199666 634.300048 251.500222 680.699548 238.999555 C 703.900612 232.700472 726.899371 224.00054 749.500484 213.499979 C 772.099298 202.900493 794.200532 190.60011 815.499727 177.599445 C 858.099601 151.799336 898.50011 124.200222 925.700181 104.699985 " stroke="#586c5a" stroke-width="1" stroke-opacity="1" stroke-miterlimit="10"/></g></g></g><g clip-path="url(#b2a23d9112)"><g clip-path="url(#f3786958b2)"><g clip-path="url(#0b7d86b2be)"><path stroke-linecap="butt" transform="matrix(2.406471, 0.0953943, -0.0953943, 2.406471, -41.937146, 13.454688)" fill="none" stroke-linejoin="miter" d="M 6.100313 236.200059 C 33.099704 172.900119 99.30042 131.599238 167.100108 122.199563 C 234.899797 112.799888 305.099677 131.599542 366.599193 161.499589 C 428.099651 191.300581 483.099573 229.999699 545.000524 242.099754 C 589.800739 250.800149 636.400333 245.599319 681.799877 231.500454 C 704.500056 224.399874 726.999414 215.099665 749.300452 204.39998 C 771.600749 193.599685 793.400087 181.299906 814.800296 168.800061 C 857.400107 143.899223 899.000237 118.799398 927.79994 103.699625 " stroke="#586c5a" stroke-width="1" stroke-opacity="1" stroke-miterlimit="10"/></g></g></g><g clip-path="url(#d7ed47c764)"><g clip-path="url(#74f7944491)"><g clip-path="url(#1da299c28f)"><path stroke-linecap="butt" transform="matrix(2.406471, 0.0953943, -0.0953943, 2.406471, -41.937146, 13.454688)" fill="none" stroke-linejoin="miter" d="M 6.500736 240.20005 C 32.79978 176.799638 99.799358 136.200787 167.699393 127.899306 C 235.599492 119.599445 305.099969 139.100463 367.000635 167.900292 C 428.90056 196.599511 485.599278 232.700675 548.100027 241.300002 C 592.900166 247.50063 638.700346 239.700237 683.100685 223.899259 C 705.300108 216.000423 727.399797 206.199871 749.199612 195.099639 C 771.100103 184.000286 792.799507 171.80024 814.099381 159.799456 C 856.799868 135.800388 899.50063 113.20053 929.900642 102.600212 " stroke="#586c5a" stroke-width="1" stroke-opacity="1" stroke-miterlimit="10"/></g></g></g><g clip-path="url(#52478aa4cb)"><g clip-path="url(#1ce746ab05)"><g clip-path="url(#21f017f0e0)"><path stroke-linecap="butt" transform="matrix(2.406471, 0.0953943, -0.0953943, 2.406471, -41.937146, 13.454688)" fill="none" stroke-linejoin="miter" d="M 6.900418 244.099431 C 32.500058 180.499491 100.400464 140.79991 168.300499 133.39932 C 236.199656 126.099405 305.000464 146.499831 367.300661 174.199507 C 429.500246 201.899924 488.100742 235.200302 551.000743 240.399373 C 595.800807 244.100234 640.799953 233.700344 684.299326 216.300491 C 705.999485 207.600093 727.599773 197.199265 749.099514 185.899908 C 770.699866 174.59981 792.100616 162.40024 813.499883 150.90034 C 856.200306 127.800542 900.00008 107.700717 932.100333 101.500121 " stroke="#586c5a" stroke-width="1" stroke-opacity="1" stroke-miterlimit="10"/></g></g></g><g clip-path="url(#b305f9ed26)"><g clip-path="url(#b0c7187b9d)"><g clip-path="url(#5472c19809)"><path stroke-linecap="butt" transform="matrix(2.406471, 0.0953943, -0.0953943, 2.406471, -41.937146, 13.454688)" fill="none" stroke-linejoin="miter" d="M 7.200231 248.100164 C 32.200198 184.400631 100.800348 145.400517 168.700183 139.100483 C 236.600018 132.800448 304.79947 154.000616 367.499939 180.700749 C 430.100611 207.299328 490.39984 238.000132 553.899702 239.700095 C 598.800301 240.900447 642.899359 227.900116 685.400332 208.90038 C 706.599671 199.400105 727.700623 188.400622 748.900225 176.90052 C 770.100706 165.299744 791.299969 153.299702 812.800387 142.099335 C 855.599802 119.899751 900.499465 102.199282 934.100159 100.599493 " stroke="#586c5a" stroke-width="1" stroke-opacity="1" stroke-miterlimit="10"/></g></g></g><g clip-path="url(#8daaf67d4b)"><g clip-path="url(#6b7c07aac4)"><g clip-path="url(#8d308d5412)"><path stroke-linecap="butt" transform="matrix(2.406471, 0.0953943, -0.0953943, 2.406471, -41.937146, 13.454688)" fill="none" stroke-linejoin="miter" d="M 7.600654 252.100155 C 31.900274 188.300149 101.399832 149.999704 169.299467 144.800226 C 237.200723 139.600683 304.800439 161.600527 367.799763 187.199628 C 430.800771 212.800285 492.799612 240.800841 556.800282 239.000752 C 601.70074 237.699716 644.899775 222.100565 686.499718 201.500334 C 707.199857 191.200118 727.900398 179.59968 748.700194 167.800522 C 769.6006 156.000621 790.600198 144.000377 812.000346 133.300693 C 854.799697 112.00038 900.900667 96.800757 936.100048 99.700486 " stroke="#586c5a" stroke-width="1" stroke-opacity="1" stroke-miterlimit="10"/></g></g></g><g clip-path="url(#7fd7af309d)"><g clip-path="url(#bb2af7f3dd)"><g clip-path="url(#abe7b0c2f2)"><path stroke-linecap="butt" transform="matrix(2.406471, 0.0953943, -0.0953943, 2.406471, -41.937146, 13.454688)" fill="none" stroke-linejoin="miter" d="M 8.000336 255.999535 C 31.600552 192.000003 102.00026 154.499837 169.900573 150.30024 C 237.799266 146.100707 304.799925 168.999218 368.200463 193.499721 C 431.599381 218.000289 495.399864 243.499455 559.900663 238.100324 C 604.799425 234.299586 647.200603 216.099188 687.89958 193.900082 C 708.19951 182.799247 728.300039 170.599276 748.700706 158.600049 C 769.199622 146.499534 790.000297 134.599701 811.499773 124.399279 C 854.3998 104.000736 901.599717 91.299523 938.400351 98.599653 " stroke="#586c5a" stroke-width="1" stroke-opacity="1" stroke-miterlimit="10"/></g></g></g><g clip-path="url(#41240835ec)"><g clip-path="url(#1137ff970b)"><g clip-path="url(#4e39b25c31)"><path stroke-linecap="butt" transform="matrix(2.406471, 0.0953943, -0.0953943, 2.406471, -41.937146, 13.454688)" fill="none" stroke-linejoin="miter" d="M 8.400759 259.999526 C 31.300628 195.899521 102.500754 159.099702 170.399247 156.000725 C 238.300175 152.799388 304.699541 176.49926 368.399677 199.999342 C 432.099813 223.499424 497.699704 246.399896 562.799558 237.399425 C 607.799661 231.200409 649.300073 210.30058 689.000587 186.499971 C 708.799696 174.599259 728.399267 161.800697 748.499796 149.600725 C 768.700194 137.299401 789.200593 125.400108 810.700409 115.699627 C 853.600373 96.200354 901.899365 86.000794 940.399297 97.7997 " stroke="#586c5a" stroke-width="1" stroke-opacity="1" stroke-miterlimit="10"/></g></g></g><g clip-path="url(#26734eba5e)"><g clip-path="url(#78f8d70f75)"><g clip-path="url(#61167c3fd1)"><path stroke-linecap="butt" transform="matrix(2.406471, 0.0953943, -0.0953943, 2.406471, -41.937146, 13.454688)" fill="none" stroke-linejoin="miter" d="M 8.799562 263.999582 C 31.000027 199.70005 103.100303 163.70051 170.99941 161.599793 C 238.900202 159.500633 304.699833 184.000182 368.799499 206.40011 C 432.900785 228.799974 500.300762 249.200741 565.80007 236.60035 C 610.900644 227.899205 651.499412 204.40062 690.200784 178.899518 C 709.500758 166.200486 728.699854 152.799349 748.400577 140.30032 C 768.199548 127.700003 788.600692 115.999431 810.100169 106.699901 C 853.000811 88.200509 902.500304 80.399563 942.499257 96.599676 " stroke="#586c5a" stroke-width="1" stroke-opacity="1" stroke-miterlimit="10"/></g></g></g><g clip-path="url(#37860cb2e2)"><g clip-path="url(#000bb67c5d)"><g clip-path="url(#6a382bffb0)"><path stroke-linecap="butt" transform="matrix(2.406471, 0.0953943, -0.0953943, 2.406471, -41.937146, 13.454688)" fill="none" stroke-linejoin="miter" d="M 9.199308 267.900583 C 30.800036 203.499836 103.600798 168.300375 171.599638 167.200482 C 239.499423 166.099647 304.600328 191.39955 369.100266 212.799935 C 433.600204 234.200321 502.799525 252.000772 568.800519 235.799655 C 613.900138 224.699417 653.700372 198.500595 691.500778 171.400619 C 729.299564 144.300706 766.500159 115.500639 809.500606 97.799165 C 852.499498 80.099375 903.100429 74.900628 944.699691 95.600196 " stroke="#586c5a" stroke-width="1" stroke-opacity="1" stroke-miterlimit="10"/></g></g></g></g></g></g></svg>