<svg xmlns="http://www.w3.org/2000/svg" width="135" height="26" fill="none"><g fill="#95AC8E" clip-path="url(#a)"><path d="M14.488 20.859c.023-2.382-.58-4.32-1.349-4.327-.768-.008-1.41 1.918-1.433 4.3-.024 2.382.58 4.32 1.349 4.327.768.008 1.41-1.918 1.433-4.3Zm-4.454-.542c1.308-1.991 1.847-3.948 1.205-4.37-.643-.421-2.223.851-3.53 2.843-1.309 1.99-1.849 3.948-1.207 4.37.642.421 2.223-.851 3.53-2.843ZM6.573 17.46c2.177-.968 3.689-2.323 3.376-3.025-.312-.702-2.33-.486-4.507.482-2.176.969-3.688 2.323-3.376 3.025.313.702 2.33.486 4.507-.482Zm3.11-4.992c.117-.76-1.697-1.669-4.052-2.031-2.355-.363-4.358-.041-4.475.718-.117.76 1.697 1.67 4.052 2.032 2.355.362 4.358.04 4.475-.72Zm.851-1.809c.509-.576-.526-2.322-2.311-3.9-1.785-1.577-3.645-2.39-4.154-1.814-.509.576.526 2.322 2.311 3.9 1.785 1.577 3.645 2.39 4.154 1.814Zm1.681-1.058c.74-.21.813-2.237.164-4.53C11.731 2.78 10.605 1.09 9.866 1.3c-.74.21-.813 2.237-.164 4.53.649 2.292 1.774 3.981 2.513 3.772ZM16.788 5.9c.694-2.279.66-4.308-.075-4.532-.735-.223-1.893 1.443-2.587 3.722-.694 2.28-.66 4.308.075 4.532.735.224 1.893-1.442 2.587-3.722Zm3.267 3.08c1.815-1.542 2.884-3.267 2.386-3.853-.497-.585-2.372.19-4.188 1.733-1.816 1.543-2.884 3.268-2.387 3.853.498.586 2.373-.19 4.189-1.732Zm1.079 4.359c2.362-.316 4.194-1.19 4.092-1.952-.102-.761-2.1-1.122-4.46-.806-2.362.316-4.194 1.189-4.092 1.95.102.762 2.099 1.123 4.46.808Zm3.046 4.821c.326-.695-1.159-2.078-3.316-3.09-2.158-1.01-4.17-1.266-4.497-.57-.326.695 1.159 2.08 3.316 3.09 2.157 1.011 4.17 1.267 4.497.57Zm-4.539 5.134c.65-.41.15-2.376-1.118-4.393s-2.824-3.32-3.474-2.911c-.65.409-.15 2.375 1.118 4.392 1.268 2.017 2.824 3.32 3.474 2.912Z"/></g><path fill="#0A0A0A" d="M32.405 22V3.42h12.737v3.143h-8.986v4.398h7.757v3.143h-7.757V22h-3.751Zm15.817 0V3.42h3.561V22h-3.561Zm16.083 0v-2.015a5.176 5.176 0 0 1-1.94 1.698 5.38 5.38 0 0 1-2.522.621c-.904 0-1.715-.198-2.433-.595-.718-.398-1.238-.955-1.559-1.673-.32-.719-.481-1.711-.481-2.979V8.54h3.561v6.185c0 1.893.063 3.055.19 3.486.135.422.376.76.722 1.013.347.245.786.368 1.319.368.608 0 1.153-.165 1.635-.494.481-.338.81-.752.988-1.242.178-.499.266-1.711.266-3.638V8.54h3.562V22h-3.308Zm5.297 0 4.855-6.933-4.652-6.527h4.347l2.383 3.701 2.51-3.7h4.182l-4.563 6.374L83.645 22h-4.373l-2.737-4.17L73.772 22h-4.17Zm25.221-4.334 2.358.291c-.372 1.377-1.06 2.446-2.066 3.206-1.006.761-2.29 1.141-3.853 1.141-1.969 0-3.532-.604-4.69-1.812-1.148-1.217-1.723-2.92-1.723-5.108 0-2.264.583-4.022 1.749-5.272 1.166-1.25 2.678-1.876 4.537-1.876 1.8 0 3.27.613 4.41 1.838 1.141 1.225 1.712 2.949 1.712 5.17 0 .136-.005.339-.013.61H87.206c.085 1.478.503 2.61 1.255 3.396.752.786 1.69 1.178 2.814 1.178.836 0 1.55-.22 2.141-.659.592-.439 1.06-1.14 1.407-2.103Zm-7.49-3.689h7.516c-.102-1.132-.389-1.98-.862-2.547-.727-.879-1.669-1.318-2.826-1.318-1.048 0-1.931.35-2.65 1.052-.709.701-1.102 1.639-1.178 2.813ZM100.058 22V8.54h2.053v1.914c.988-1.478 2.416-2.218 4.284-2.218.811 0 1.554.148 2.23.444.685.287 1.196.667 1.534 1.14.338.474.574 1.035.709 1.686.085.422.127 1.162.127 2.218V22h-2.281v-8.187c0-.93-.089-1.623-.266-2.079a2.157 2.157 0 0 0-.951-1.102c-.448-.28-.976-.419-1.584-.419-.972 0-1.812.309-2.522.926-.701.616-1.052 1.787-1.052 3.51V22h-2.281Zm19.429-2.04.329 2.015a8.47 8.47 0 0 1-1.724.202c-.828 0-1.47-.13-1.926-.392-.456-.262-.777-.605-.963-1.027-.186-.43-.279-1.33-.279-2.7v-7.743h-1.673V8.54h1.673V5.207l2.269-1.369V8.54h2.294v1.775h-2.294v7.87c0 .65.038 1.069.114 1.255a.992.992 0 0 0 .393.444c.185.11.447.164.785.164.254 0 .588-.03 1.002-.088Zm11.026.38c-.845.718-1.66 1.225-2.446 1.52a7.003 7.003 0 0 1-2.51.444c-1.478 0-2.615-.359-3.409-1.077-.794-.727-1.191-1.652-1.191-2.776 0-.659.148-1.259.443-1.8a3.789 3.789 0 0 1 1.179-1.317 5.621 5.621 0 0 1 1.648-.748c.447-.119 1.123-.233 2.027-.342 1.842-.22 3.198-.482 4.069-.786.008-.313.012-.511.012-.596 0-.93-.215-1.584-.646-1.964-.583-.516-1.449-.773-2.598-.773-1.073 0-1.867.19-2.383.57-.507.372-.883 1.035-1.128 1.99l-2.23-.304c.202-.955.536-1.724 1.001-2.307.465-.592 1.136-1.044 2.015-1.356.879-.321 1.897-.482 3.054-.482 1.15 0 2.083.135 2.801.406.719.27 1.247.612 1.585 1.026.338.406.574.921.709 1.547.076.388.114 1.09.114 2.103v3.042c0 2.12.047 3.464.14 4.03.101.558.296 1.095.583 1.61h-2.383c-.236-.473-.389-1.027-.456-1.66Zm-.19-5.095c-.828.338-2.07.625-3.726.862-.938.135-1.601.287-1.99.456a1.968 1.968 0 0 0-1.217 1.825c0 .608.228 1.115.685 1.52.464.406 1.14.61 2.027.61.879 0 1.661-.19 2.345-.571.684-.389 1.187-.917 1.508-1.584.245-.516.368-1.276.368-2.282v-.836Z"/><defs><clipPath id="a"><path fill="#fff" d="M.197.022h25.956v25.956H.197z"/></clipPath></defs></svg>