<svg xmlns="http://www.w3.org/2000/svg" width="119" height="27" fill="none"><g clip-path="url(#a)"><path fill="#FC5800" d="M7.23 2.72c2.996 0 5.424 2.474 5.424 5.526v9.671c0 .255.203.46.452.46.25 0 .452-.205.452-.46v-9.67c0-3.053 2.428-5.527 5.424-5.527h7.232c3.494 0 6.327 2.887 6.327 6.447v2.31a6.52 6.52 0 0 1-1.545 4.223L24.8 22.983h-7.177l9.274-10.902.05-.065a.933.933 0 0 0 .17-.539v-2.31a.913.913 0 0 0-.903-.92h-6.328v-.461a.456.456 0 0 0-.452-.46.456.456 0 0 0-.452.46v9.67c0 3.053-2.428 5.527-5.424 5.527h-.904c-2.995 0-5.423-2.474-5.423-5.526V7.786a.456.456 0 0 0-.452-.46.456.456 0 0 0-.452.46v15.197H.903V8.246c0-3.052 2.428-5.526 5.424-5.526h.904Z"/></g><path fill="#0A0A0A" d="M42.372 4.622v4.802h6.8l-.493 3.088h-6.307v4.595L42.579 21h-3.66l.234-3.893V5.297l-.233-3.764h11.524l-.493 3.089h-7.58Zm22.87.804L63.916 9.19 60.57 21c-.986 2.492-2.388 4.36-4.205 5.607l-2.647-2.492.156-.312c.57-.155 1.21-.519 1.92-1.09.71-.57 1.194-1.142 1.454-1.713h-1.272L52.678 9.19l-1.35-3.764h3.998l.675 3.764 2.284 9.318 2.258-9.318.727-3.764h3.971Zm10.631 11.68v-6.748c0-.727-.173-1.28-.519-1.661-.346-.38-.856-.571-1.531-.571-.571 0-1.151.156-1.74.467-.588.311-1.08.779-1.479 1.402v7.112L70.812 21H67.23l.233-3.893V9.19l-.233-3.764h2.855l.52 1.973a4.479 4.479 0 0 1 1.842-1.61c.779-.363 1.653-.544 2.622-.544 1.228 0 2.189.38 2.88 1.142.71.761 1.065 1.869 1.065 3.322v7.398L79.222 21h-3.556l.207-3.893Zm6.123-10.771 1.661-.909.779-3.244h2.362v3.244h4.257v2.985h-4.257v7.683c0 1.402.562 2.103 1.687 2.103.554 0 1.082-.113 1.583-.338.502-.242.9-.545 1.194-.908l.442.233-.675 2.726c-.606.519-1.16.882-1.661 1.09-.485.208-1.047.311-1.688.311-1.419 0-2.448-.44-3.088-1.323-.623-.883-.935-2.388-.935-4.517v-7.06h-1.661V6.335Zm18.905-1.09c1.107 0 1.946.12 2.517.363l-.519 2.751-.337.234c-.225-.156-.545-.277-.96-.363a5.798 5.798 0 0 0-1.402-.156c-1.177 0-2.111.493-2.803 1.48v7.553L97.604 21h-3.582l.234-3.893V9.19l-.234-3.764h2.855l.442 1.688c.45-.623.977-1.09 1.583-1.402a4.408 4.408 0 0 1 1.999-.467Zm3.728 11.42c0-1.003.234-1.903.701-2.7a4.98 4.98 0 0 1 1.895-1.894c.796-.467 1.67-.7 2.621-.7.796 0 1.54.069 2.232.207.693.138 1.255.329 1.688.571v-1.454c0-.847-.277-1.488-.831-1.92-.536-.433-1.332-.65-2.388-.65-1.038 0-1.964.182-2.777.546-.814.363-1.436.882-1.869 1.557l-.286-.052.416-3.4c.571-.536 1.297-.952 2.18-1.246a8.508 8.508 0 0 1 2.803-.467c1.817 0 3.253.441 4.309 1.324 1.056.882 1.583 2.102 1.583 3.66v7.086l.208 3.867h-3.271l-.077-1.505c-.329.553-.892 1.012-1.688 1.375a6.049 6.049 0 0 1-2.543.545c-1.523 0-2.726-.424-3.608-1.271-.865-.848-1.298-2.008-1.298-3.479Zm3.245-.233c0 .761.173 1.324.519 1.687.346.346.917.519 1.713.519.657 0 1.332-.13 2.024-.39.693-.276 1.238-.63 1.636-1.064v-2.31c-.416-.242-.952-.432-1.61-.57a8.423 8.423 0 0 0-1.998-.234c-.796 0-1.376.199-1.739.597-.364.38-.545.969-.545 1.765Z"/><defs><clipPath id="a"><path fill="#fff" d="M.874 2.5h32v21h-32z"/></clipPath></defs></svg>