<svg xmlns="http://www.w3.org/2000/svg" width="111" height="29" fill="none"><g clip-path="url(#a)"><path fill="#297AFF" d="m28.197 19.875-7.68 5.625H3.877l1.28-3.125 3.2-2.5h10.88l1.92 2.5 5.12-15 3.2-2.5h3.2l-4.48 15Zm0-16.25-3.2 2.5h-10.88l-1.92-2.5-5.12 15-3.2 2.5h-3.2l4.48-15L12.837.5h16.64l-1.28 3.125Zm-12.16 5h7.04l-3.84 11.25-1.92-2.5h-7.04l3.84-11.25 1.92 2.5Z"/></g><path fill="#0A0A0A" d="M44.52 22 38.044 3.83h3.076l5.217 14.848h-.7L50.88 3.83h3.075L47.466 22H44.52Zm15.795.26c-1.54 0-2.829-.312-3.867-.935-1.03-.623-1.809-1.445-2.336-2.466-.52-1.03-.779-2.158-.779-3.387 0-1.185.242-2.275.727-3.27A5.862 5.862 0 0 1 56.2 9.8c.943-.606 2.085-.909 3.426-.909 1.177 0 2.18.238 3.011.714a4.73 4.73 0 0 1 1.895 1.973c.441.83.662 1.782.662 2.855 0 .242-.017.497-.052.766-.026.26-.065.527-.117.804H56.33c.121.943.385 1.692.792 2.245.406.554.912.956 1.518 1.207a5.227 5.227 0 0 0 1.96.364c.692 0 1.358-.082 1.998-.247a8.495 8.495 0 0 0 1.804-.7l.22 2.4c-.492.242-1.102.467-1.829.675-.727.208-1.553.312-2.479.312Zm-3.854-8.229h5.775c0-.467-.09-.904-.273-1.31a2.151 2.151 0 0 0-.843-1c-.38-.26-.883-.389-1.506-.389-.908 0-1.618.247-2.128.74-.502.493-.844 1.146-1.025 1.96Zm14.293 8.229c-.787 0-1.428-.152-1.92-.455-.485-.302-.84-.7-1.065-1.194a3.952 3.952 0 0 1-.337-1.635V2.533h2.907v15.12c0 .7.043 1.21.13 1.53.086.312.25.511.493.598.25.078.623.117 1.116.117l-.312 2.362h-1.012Zm7.425 0c-.814 0-1.471-.16-1.973-.48-.502-.32-.87-.727-1.103-1.22a3.679 3.679 0 0 1-.35-1.57v-7.528H72.78l.26-2.35h1.712V6.155l2.895-.299v3.258h3.036v2.349h-3.037v6.164c0 .718.044 1.238.13 1.558a.81.81 0 0 0 .597.597c.312.078.814.117 1.506.117h.778l-.246 2.362h-2.232Zm4.576-.26V9.113h2.621l.143 1.648a6.72 6.72 0 0 1 1.57-1.35 3.59 3.59 0 0 1 1.934-.558c.208 0 .402.022.584.065l-.234 2.946a2.438 2.438 0 0 0-.493-.078 4.834 4.834 0 0 0-.506-.026 3.34 3.34 0 0 0-1.622.403c-.493.268-.84.58-1.038.934V22h-2.96Zm8.44 0V9.113h2.895V22h-2.895Zm0-15.171V3.83h2.895v2.998h-2.895Zm14.73 21.452v-8.63l.661.558a4.787 4.787 0 0 1-1.778 1.531c-.7.347-1.54.52-2.517.52-1.289 0-2.37-.303-3.245-.909-.865-.605-1.518-1.415-1.96-2.427-.44-1.012-.661-2.128-.661-3.348 0-1.194.225-2.297.675-3.31.45-1.02 1.111-1.838 1.985-2.452.874-.615 1.938-.922 3.193-.922 1.073 0 1.964.204 2.673.61.71.407 1.328.96 1.856 1.661l-.843.377.622-2.427h2.233V28.28h-2.894Zm-3.193-8.461c.701 0 1.298-.165 1.791-.494.502-.337.882-.821 1.142-1.453.268-.632.402-1.397.402-2.297 0-1.333-.294-2.37-.882-3.115-.58-.753-1.397-1.129-2.453-1.129-1.056 0-1.877.385-2.466 1.155-.588.77-.882 1.8-.882 3.089 0 1.28.294 2.31.882 3.089.589.77 1.41 1.155 2.466 1.155Z"/><defs><clipPath id="a"><path fill="#fff" d="M.677.5h32v25h-32z"/></clipPath></defs></svg>